<svg width="104" height="104" viewBox="0 0 104 104" fill="none" xmlns="http://www.w3.org/2000/svg">
<path d="M91 52V82.3333C91 84.6319 90.0869 86.8363 88.4616 88.4616C86.8363 90.0869 84.6319 91 82.3333 91H21.6667C19.3681 91 17.1637 90.0869 15.5384 88.4616C13.9131 86.8363 13 84.6319 13 82.3333V21.6667C13 19.3681 13.9131 17.1637 15.5384 15.5384C17.1637 13.9131 19.3681 13 21.6667 13H52" stroke="black" stroke-width="6" stroke-linecap="round" stroke-linejoin="round"/>
<path d="M69.3334 21.6667H95.3334" stroke="black" stroke-width="6" stroke-linecap="round" stroke-linejoin="round"/>
<path d="M82.3334 8.66675V34.6667" stroke="black" stroke-width="6" stroke-linecap="round" stroke-linejoin="round"/>
<path d="M39 47.6666C43.7865 47.6666 47.6667 43.7864 47.6667 38.9999C47.6667 34.2135 43.7865 30.3333 39 30.3333C34.2136 30.3333 30.3334 34.2135 30.3334 38.9999C30.3334 43.7864 34.2136 47.6666 39 47.6666Z" stroke="black" stroke-width="6" stroke-linecap="round" stroke-linejoin="round"/>
<path d="M91 65L77.6273 51.6273C76.0021 50.0026 73.7981 49.0898 71.5 49.0898C69.2019 49.0898 66.9979 50.0026 65.3727 51.6273L26 91" stroke="black" stroke-width="6" stroke-linecap="round" stroke-linejoin="round"/>
</svg>
