<svg width="342" height="104" viewBox="0 0 342 104" fill="none" xmlns="http://www.w3.org/2000/svg">
<g clip-path="url(#clip0_465_57)">
<g clip-path="url(#clip1_465_57)" filter="url(#filter0_d_465_57)">
<path fill-rule="evenodd" clip-rule="evenodd" d="M64.5642 98.6305C68.7883 96.8355 70.9087 94.8833 73.0049 90.8616C74.3217 88.335 75.4668 87.4253 77.887 86.9799C81.8651 86.2492 87.2715 81.1906 88.7432 76.8217C89.3594 74.9931 89.6582 71.7085 89.4058 69.5227C88.9975 65.9682 89.2759 65.2093 92.0458 62.3319C95.1378 59.1219 97.0559 54.4222 97.0652 50.0334C97.0717 47.2623 92.6834 38.3056 91.0121 37.6775C90.1686 37.3604 89.9718 35.7553 90.317 32.0227C91.0752 23.8358 86.7954 17.1884 79.1499 14.6782C77.0462 13.9875 75.4724 12.4288 73.7037 9.28509C69.5343 1.87432 60.998 -0.844957 52.4385 2.5087C48.8639 3.91015 48.3025 3.90923 44.3002 2.50415C41.9358 1.67437 38.6303 0.997282 36.9554 1.00001C30.7631 1.0091 24.2961 5.34976 21.8462 11.141C21.1744 12.7305 19.6525 14.0156 17.6917 14.6491C10.0731 17.1121 5.66996 23.7331 6.34552 31.711C6.72134 36.1516 6.49956 36.9368 4.15366 39.4516C-1.57466 45.5945 -1.34824 56.0936 4.64827 62.321C7.4303 65.2093 7.7087 65.9655 7.29947 69.5227C7.04706 71.7085 7.34586 74.9931 7.96203 76.8217C9.43378 81.1906 14.8401 86.2492 18.8183 86.9799C21.2384 87.4253 22.3835 88.335 23.7003 90.8616C25.8337 94.9551 27.9597 96.8746 32.3489 98.6714C36.6742 100.441 40.4018 100.443 44.9052 98.6777C48.0919 97.429 48.8018 97.429 51.8538 98.6777C56.1002 100.416 60.3985 100.4 64.5642 98.6305ZM52.4672 92.7666C50.8869 91.9377 50.6725 90.798 50.6725 83.2237V74.6214H54.4763C57.5348 74.6214 58.8071 75.174 60.9729 77.4452C63.8246 80.4353 66.4479 80.4844 66.4479 77.5479C66.4479 73.8089 59.2692 69.1683 53.4861 69.1683H50.6725L50.6725 39.6825C50.6725 10.2421 50.6753 10.1939 52.7354 8.78158C55.1992 7.09021 63.4868 6.92934 65.5627 8.53164C68.2862 10.6338 70.1598 14.1429 70.1598 17.1439C70.1598 22.4889 67.1866 25.2536 59.7202 26.8504C58.3162 27.1503 57.1683 27.951 57.1683 28.6309C57.1683 30.5685 59.6747 32.1145 61.7636 31.4647C63.0219 31.0738 63.6659 31.2792 63.6696 32.0718C63.6724 32.7298 64.116 34.8274 64.656 36.7323C65.4559 39.5525 66.0155 40.1442 67.6673 39.9133C69.5334 39.6534 69.6698 39.2062 69.3673 34.3266C69.0787 29.6824 69.3265 28.7208 71.3504 26.6014C72.6226 25.2699 73.9468 23.2596 74.2939 22.1353C75.9642 16.7213 85.0147 23.5967 85.0035 30.2695C85.0017 31.4192 84.1665 33.6986 83.1476 35.3355C82.1287 36.9723 81.2954 38.4128 81.2954 38.5373C81.2954 38.6609 82.7894 39.5507 84.6147 40.5141C90.266 43.4942 92.2843 50.5705 89.1673 56.4744C86.3416 61.8257 77.3933 63.7025 72.5382 59.9625L70.0271 58.0285L73.0003 55.0239C74.8488 53.1562 75.7619 51.4821 75.4158 50.5969C74.8052 49.0391 71.0878 48.6083 71.0878 50.0961C71.0878 51.6157 65.2583 54.6185 62.2721 54.6376C58.666 54.6594 56.7516 55.8864 57.468 57.7159C57.8429 58.6738 59.169 59.1709 61.346 59.1709C63.8793 59.1709 65.4031 59.9044 67.8529 62.3047C71.0395 65.4247 75.8334 67.336 80.5001 67.3451C84.302 67.3533 85.1204 70.8342 82.562 76.1146C80.7943 79.7637 77.1344 81.8922 72.6291 81.8922C69.6921 81.8922 69.3877 82.1558 68.8031 85.2095C68.4533 87.0345 66.9778 89.6928 65.5228 91.117C63.3754 93.221 62.0698 93.7072 58.5704 93.7072C56.2014 93.7072 53.4546 93.2837 52.4672 92.7666ZM31.0377 90.9761C29.5047 89.4747 28.3884 87.8633 28.5573 87.3953C28.7271 86.9281 30.3269 85.5867 32.1132 84.4152C35.7045 82.0585 36.8802 78.5958 34.4044 77.666C33.5516 77.3452 32.5828 77.4734 32.2515 77.9496C30.8354 79.9872 26.8359 81.8922 23.9731 81.8922C19.5662 81.8922 15.898 79.7364 14.1432 76.1146C11.582 70.8288 12.4033 67.3506 16.2116 67.3506C17.5637 67.3506 20.0413 66.9652 21.7182 66.4945C24.1921 65.7992 25.3827 65.9946 28.0432 67.5324C31.1027 69.3001 31.4228 69.3246 32.8677 67.9104C34.3125 66.4954 34.1232 66.15 30.0262 62.72C27.3602 60.4888 25.3391 57.9113 24.877 56.1545C24.3545 54.1704 23.4776 53.1725 22.0829 52.9726C20.3596 52.7272 20.0497 53.1171 20.0497 55.5319C20.0497 57.0997 20.4821 59.1728 21.0101 60.1398C21.8871 61.7439 21.6402 61.8975 18.1808 61.8975C10.8406 61.8975 6.13022 57.4569 6.13022 50.5369C6.13022 46.0135 8.17082 42.5808 12.0905 40.5141C13.9158 39.5507 15.4099 38.6746 15.4099 38.5673C15.4099 38.4592 14.5292 36.9096 13.4537 35.1237C10.9584 30.9821 11.6906 26.3197 15.4071 22.6806C18.1195 20.0241 21.9056 19.1861 21.9056 21.2428C21.9056 21.8763 22.9403 23.8867 24.2051 25.7089C26.1965 28.5791 26.3701 29.4007 25.5024 31.8391C23.524 37.3967 27.4725 39.757 29.7636 34.3866C31.2586 30.8821 33.4727 28.7554 36.9869 27.4466C40.3554 26.1924 40.5549 22.8169 37.2607 22.8169C36.0088 22.8169 33.8717 23.3132 32.5123 23.9203C30.3148 24.9009 29.8444 24.7882 28.2928 22.9106C25.5173 19.5542 25.9896 14.4119 29.4258 10.5793C32.0251 7.67915 32.7721 7.36651 37.1066 7.36651C39.9499 7.36651 42.7486 7.94362 43.9699 8.78158C45.978 10.1585 46.0327 10.652 46.0327 27.413L46.0327 44.6293H42.9342C40.5067 44.6293 39.5991 44.1231 38.7491 42.2954C37.3859 39.3653 33.3029 39.4171 33.8318 42.3572C34.0119 43.357 34.4294 46.6288 34.7598 49.628C35.273 54.2786 35.6339 55.0811 37.217 55.0811C38.5097 55.0811 39.3421 54.185 39.961 52.1274C40.6886 49.7071 41.3168 49.1736 43.4409 49.1736H46.0327L46.0327 70.4861C46.0327 94.667 46.3779 93.63 38.3055 93.68C34.5445 93.7027 33.3799 93.2692 31.0377 90.9761Z" fill="#1E3932"/>
</g>
</g>
<g filter="url(#filter1_d_465_57)">
<path d="M65.5398 4.27273H76.1591L87.375 31.6364H87.8523L99.0682 4.27273H109.688V45H101.335V18.4915H100.997L90.4574 44.8011H84.7699L74.2301 18.392H73.892V45H65.5398V4.27273ZM121.853 56.4545C120.779 56.4545 119.772 56.3684 118.83 56.196C117.902 56.0369 117.133 55.8314 116.523 55.5795L118.433 49.2557C119.427 49.5606 120.322 49.7263 121.117 49.7528C121.926 49.7794 122.622 49.5938 123.205 49.196C123.802 48.7983 124.286 48.1222 124.657 47.1676L125.154 45.875L114.197 14.4545H123.106L129.43 36.8864H129.748L136.131 14.4545H145.1L133.228 48.3011C132.658 49.9451 131.882 51.3769 130.901 52.5966C129.933 53.8295 128.707 54.7775 127.222 55.4403C125.737 56.1165 123.948 56.4545 121.853 56.4545ZM65.3807 95V64.4545H73.4545V69.8438H73.8125C74.4489 68.054 75.5095 66.642 76.9943 65.608C78.4792 64.5739 80.2557 64.0568 82.3239 64.0568C84.4186 64.0568 86.2017 64.5805 87.6733 65.6278C89.1449 66.6619 90.1259 68.0672 90.6165 69.8438H90.9347C91.5578 68.0938 92.6847 66.6951 94.3153 65.6477C95.9593 64.5871 97.9015 64.0568 100.142 64.0568C102.992 64.0568 105.306 64.965 107.082 66.7812C108.872 68.5843 109.767 71.143 109.767 74.4574V95H101.315V76.1278C101.315 74.4309 100.865 73.1581 99.9631 72.3097C99.0616 71.4612 97.9347 71.0369 96.5824 71.0369C95.0445 71.0369 93.8447 71.5275 92.983 72.5085C92.1212 73.4763 91.6903 74.7557 91.6903 76.3466V95H83.4773V75.9489C83.4773 74.4508 83.0464 73.2576 82.1847 72.3693C81.3362 71.4811 80.2159 71.0369 78.8239 71.0369C77.8826 71.0369 77.0341 71.2756 76.2784 71.7528C75.536 72.2169 74.946 72.8731 74.5085 73.7216C74.071 74.5568 73.8523 75.5379 73.8523 76.6648V95H65.3807ZM130.379 95.5966C127.237 95.5966 124.533 94.9602 122.266 93.6875C120.012 92.4015 118.275 90.5852 117.055 88.2386C115.836 85.8788 115.226 83.0881 115.226 79.8665C115.226 76.7244 115.836 73.9669 117.055 71.5938C118.275 69.2206 119.992 67.3712 122.206 66.0455C124.433 64.7197 127.045 64.0568 130.041 64.0568C132.056 64.0568 133.932 64.3816 135.669 65.0312C137.419 65.6676 138.944 66.6288 140.243 67.9148C141.555 69.2008 142.576 70.8182 143.305 72.767C144.035 74.7027 144.399 76.9697 144.399 79.5682V81.8949H118.607V76.6449H136.425C136.425 75.4252 136.16 74.3447 135.629 73.4034C135.099 72.4621 134.363 71.7263 133.422 71.196C132.494 70.6525 131.413 70.3807 130.18 70.3807C128.894 70.3807 127.754 70.679 126.76 71.2756C125.779 71.8589 125.01 72.6477 124.453 73.642C123.896 74.6231 123.611 75.7169 123.598 76.9233V81.9148C123.598 83.4261 123.876 84.732 124.433 85.8324C125.003 86.9328 125.805 87.7812 126.839 88.3778C127.874 88.9744 129.1 89.2727 130.518 89.2727C131.46 89.2727 132.321 89.1402 133.104 88.875C133.886 88.6098 134.555 88.2121 135.112 87.6818C135.669 87.1515 136.093 86.5019 136.385 85.733L144.22 86.25C143.822 88.1326 143.007 89.7765 141.774 91.1818C140.554 92.5739 138.977 93.661 137.041 94.4432C135.119 95.2121 132.898 95.5966 130.379 95.5966ZM149.928 95V64.4545H158.001V69.8438H158.359C158.996 68.054 160.056 66.642 161.541 65.608C163.026 64.5739 164.803 64.0568 166.871 64.0568C168.965 64.0568 170.749 64.5805 172.22 65.6278C173.692 66.6619 174.673 68.0672 175.163 69.8438H175.482C176.105 68.0938 177.232 66.6951 178.862 65.6477C180.506 64.5871 182.448 64.0568 184.689 64.0568C187.539 64.0568 189.853 64.965 191.629 66.7812C193.419 68.5843 194.314 71.143 194.314 74.4574V95H185.862V76.1278C185.862 74.4309 185.411 73.1581 184.51 72.3097C183.608 71.4612 182.482 71.0369 181.129 71.0369C179.591 71.0369 178.392 71.5275 177.53 72.5085C176.668 73.4763 176.237 74.7557 176.237 76.3466V95H168.024V75.9489C168.024 74.4508 167.593 73.2576 166.732 72.3693C165.883 71.4811 164.763 71.0369 163.371 71.0369C162.429 71.0369 161.581 71.2756 160.825 71.7528C160.083 72.2169 159.493 72.8731 159.055 73.7216C158.618 74.5568 158.399 75.5379 158.399 76.6648V95H149.928ZM214.807 95.5966C211.718 95.5966 209.046 94.9403 206.793 93.6278C204.552 92.3021 202.822 90.4593 201.602 88.0994C200.383 85.7263 199.773 82.9754 199.773 79.8466C199.773 76.6913 200.383 73.9337 201.602 71.5739C202.822 69.2008 204.552 67.358 206.793 66.0455C209.046 64.7197 211.718 64.0568 214.807 64.0568C217.896 64.0568 220.561 64.7197 222.801 66.0455C225.055 67.358 226.792 69.2008 228.011 71.5739C229.231 73.9337 229.841 76.6913 229.841 79.8466C229.841 82.9754 229.231 85.7263 228.011 88.0994C226.792 90.4593 225.055 92.3021 222.801 93.6278C220.561 94.9403 217.896 95.5966 214.807 95.5966ZM214.847 89.0341C216.252 89.0341 217.425 88.6364 218.366 87.8409C219.308 87.0322 220.017 85.9318 220.494 84.5398C220.985 83.1477 221.23 81.5634 221.23 79.7869C221.23 78.0104 220.985 76.4261 220.494 75.0341C220.017 73.642 219.308 72.5417 218.366 71.733C217.425 70.9242 216.252 70.5199 214.847 70.5199C213.428 70.5199 212.235 70.9242 211.267 71.733C210.313 72.5417 209.59 73.642 209.099 75.0341C208.622 76.4261 208.384 78.0104 208.384 79.7869C208.384 81.5634 208.622 83.1477 209.099 84.5398C209.59 85.9318 210.313 87.0322 211.267 87.8409C212.235 88.6364 213.428 89.0341 214.847 89.0341ZM235.349 95V64.4545H243.562V69.7841H243.881C244.438 67.8883 245.372 66.4564 246.685 65.4886C247.997 64.5076 249.509 64.017 251.219 64.017C251.643 64.017 252.1 64.0436 252.591 64.0966C253.081 64.1496 253.512 64.2225 253.884 64.3153V71.8324C253.486 71.7131 252.936 71.607 252.233 71.5142C251.53 71.4214 250.887 71.375 250.304 71.375C249.058 71.375 247.944 71.6468 246.963 72.1903C245.995 72.7206 245.226 73.4631 244.656 74.4176C244.099 75.3722 243.821 76.4725 243.821 77.7188V95H235.349ZM258.263 95V64.4545H266.735V95H258.263ZM262.519 60.517C261.26 60.517 260.179 60.0994 259.278 59.2642C258.389 58.4157 257.945 57.4015 257.945 56.2216C257.945 55.0549 258.389 54.054 259.278 53.2188C260.179 52.3703 261.26 51.946 262.519 51.946C263.779 51.946 264.853 52.3703 265.741 53.2188C266.642 54.054 267.093 55.0549 267.093 56.2216C267.093 57.4015 266.642 58.4157 265.741 59.2642C264.853 60.0994 263.779 60.517 262.519 60.517ZM287.442 95.5966C284.3 95.5966 281.595 94.9602 279.328 93.6875C277.074 92.4015 275.338 90.5852 274.118 88.2386C272.898 85.8788 272.288 83.0881 272.288 79.8665C272.288 76.7244 272.898 73.9669 274.118 71.5938C275.338 69.2206 277.054 67.3712 279.268 66.0455C281.496 64.7197 284.107 64.0568 287.104 64.0568C289.119 64.0568 290.995 64.3816 292.732 65.0312C294.482 65.6676 296.006 66.6288 297.305 67.9148C298.618 69.2008 299.639 70.8182 300.368 72.767C301.097 74.7027 301.462 76.9697 301.462 79.5682V81.8949H275.669V76.6449H293.487C293.487 75.4252 293.222 74.3447 292.692 73.4034C292.161 72.4621 291.426 71.7263 290.484 71.196C289.556 70.6525 288.476 70.3807 287.243 70.3807C285.957 70.3807 284.817 70.679 283.822 71.2756C282.841 71.8589 282.072 72.6477 281.516 73.642C280.959 74.6231 280.674 75.7169 280.661 76.9233V81.9148C280.661 83.4261 280.939 84.732 281.496 85.8324C282.066 86.9328 282.868 87.7812 283.902 88.3778C284.936 88.9744 286.162 89.2727 287.581 89.2727C288.522 89.2727 289.384 89.1402 290.166 88.875C290.948 88.6098 291.618 88.2121 292.175 87.6818C292.732 87.1515 293.156 86.5019 293.447 85.733L301.283 86.25C300.885 88.1326 300.07 89.7765 298.837 91.1818C297.617 92.5739 296.039 93.661 294.104 94.4432C292.181 95.2121 289.961 95.5966 287.442 95.5966ZM332.405 73.1648L324.649 73.642C324.517 72.9792 324.232 72.3826 323.794 71.8523C323.357 71.3087 322.78 70.8778 322.064 70.5597C321.361 70.2282 320.519 70.0625 319.538 70.0625C318.226 70.0625 317.119 70.3409 316.217 70.8977C315.316 71.4413 314.865 72.1705 314.865 73.0852C314.865 73.8144 315.157 74.4309 315.74 74.9347C316.323 75.4384 317.324 75.8428 318.743 76.1477L324.271 77.2614C327.241 77.8712 329.455 78.8523 330.913 80.2045C332.372 81.5568 333.101 83.3333 333.101 85.5341C333.101 87.536 332.511 89.2926 331.331 90.804C330.164 92.3153 328.56 93.4953 326.518 94.3438C324.49 95.179 322.15 95.5966 319.499 95.5966C315.455 95.5966 312.233 94.7547 309.834 93.071C307.447 91.3741 306.049 89.0672 305.638 86.1506L313.97 85.7131C314.222 86.946 314.832 87.8873 315.8 88.5369C316.768 89.1733 318.007 89.4915 319.518 89.4915C321.003 89.4915 322.196 89.2064 323.098 88.6364C324.013 88.053 324.477 87.304 324.49 86.3892C324.477 85.6203 324.152 84.9905 323.516 84.5C322.879 83.9962 321.898 83.6117 320.572 83.3466L315.283 82.2926C312.3 81.696 310.079 80.6619 308.621 79.1903C307.176 77.7187 306.453 75.8428 306.453 73.5625C306.453 71.6004 306.983 69.91 308.044 68.4915C309.118 67.0729 310.623 65.9792 312.558 65.2102C314.507 64.4413 316.787 64.0568 319.399 64.0568C323.257 64.0568 326.293 64.8722 328.507 66.5028C330.734 68.1335 332.034 70.3542 332.405 73.1648Z" fill="#1E3932"/>
</g>
<defs>
<filter id="filter0_d_465_57" x="-4" y="1" width="55" height="107" filterUnits="userSpaceOnUse" color-interpolation-filters="sRGB">
<feFlood flood-opacity="0" result="BackgroundImageFix"/>
<feColorMatrix in="SourceAlpha" type="matrix" values="0 0 0 0 0 0 0 0 0 0 0 0 0 0 0 0 0 0 127 0" result="hardAlpha"/>
<feOffset dy="4"/>
<feGaussianBlur stdDeviation="2"/>
<feComposite in2="hardAlpha" operator="out"/>
<feColorMatrix type="matrix" values="0 0 0 0 0 0 0 0 0 0 0 0 0 0 0 0 0 0 0.5 0"/>
<feBlend mode="normal" in2="BackgroundImageFix" result="effect1_dropShadow_465_57"/>
<feBlend mode="normal" in="SourceGraphic" in2="effect1_dropShadow_465_57" result="shape"/>
</filter>
<filter id="filter1_d_465_57" x="61.3807" y="4.27272" width="275.72" height="99.3239" filterUnits="userSpaceOnUse" color-interpolation-filters="sRGB">
<feFlood flood-opacity="0" result="BackgroundImageFix"/>
<feColorMatrix in="SourceAlpha" type="matrix" values="0 0 0 0 0 0 0 0 0 0 0 0 0 0 0 0 0 0 127 0" result="hardAlpha"/>
<feOffset dy="4"/>
<feGaussianBlur stdDeviation="2"/>
<feComposite in2="hardAlpha" operator="out"/>
<feColorMatrix type="matrix" values="0 0 0 0 0 0 0 0 0 0 0 0 0 0 0 0 0 0 0.25 0"/>
<feBlend mode="normal" in2="BackgroundImageFix" result="effect1_dropShadow_465_57"/>
<feBlend mode="normal" in="SourceGraphic" in2="effect1_dropShadow_465_57" result="shape"/>
</filter>
<clipPath id="clip0_465_57">
<rect width="94" height="99" fill="white" transform="matrix(-1 0 0 -1 94 100)"/>
</clipPath>
<clipPath id="clip1_465_57">
<rect width="47" height="99" fill="white" transform="matrix(-1 0 0 -1 47 100)"/>
</clipPath>
</defs>
</svg>
