<svg width="103" height="103" viewBox="0 0 103 103" fill="none" xmlns="http://www.w3.org/2000/svg">
<rect x="3" y="3" width="97" height="97" rx="48" stroke="black" stroke-width="6" stroke-linejoin="round"/>
<path d="M75 81V74.3333C75 70.7971 73.6153 67.4057 71.1505 64.9052C68.6858 62.4048 65.3428 61 61.8571 61H42.1429C38.6572 61 35.3142 62.4048 32.8495 64.9052C30.3847 67.4057 29 70.7971 29 74.3333V81" stroke="black" stroke-width="6" stroke-linecap="round" stroke-linejoin="round"/>
<path d="M51.5 48C58.9558 48 65 42.1797 65 35C65 27.8203 58.9558 22 51.5 22C44.0442 22 38 27.8203 38 35C38 42.1797 44.0442 48 51.5 48Z" stroke="black" stroke-width="6" stroke-linecap="round" stroke-linejoin="round"/>
</svg>
